<svg viewBox="-40 -40 80 80" xmlns="http://www.w3.org/2000/svg" xmlns:xlink="http://www.w3.org/1999/xlink"><defs></defs><g fill='#FF0000' ><ellipse rx="0.01" ry="0.01" transform="translate(0 0) "/></g><g fill='#FF0000' ><path d="M 0.0000011920929 -40 C -7.1453133 -40 -13.747853 -36.18802 -17.32051 -29.999996 C -20.893166 -23.811966 -20.893162 -16.18801 -17.320501 -9.999989 C -13.747835 -3.811966 -7.1452904 0.0000076293945 0.000023841858 -0.0000019073486 L 0 -20 C 0 -20 0 -20 0 -20 L 0 -20 C 0 -20 0 -20 0 -20 L 0 -20 C 0 -20 0 -20 0 -20 Z"/></g><g fill='#FF0000' ><ellipse rx="10" ry="10" transform="translate(0 -30) "/></g><g fill='#FFFFFF' ><path d="M 0.00000059604645 -20 C -3.5726566 -20 -6.8739266 -18.09401 -8.660255 -14.999998 C -10.446583 -11.905983 -10.446581 -8.094005 -8.660251 -4.9999943 C -6.8739176 -1.905983 -3.5726452 0.0000038146973 0.000011920929 -0.0000009536743 L 0 -10 C 0 -10 0 -10 0 -10 L 0 -10 C 0 -10 0 -10 0 -10 L 0 -10 C 0 -10 0 -10 0 -10 Z"/></g><g fill='#FF0000' ><path d="M -40 0.0000005563627 C -40 7.145315 -36.18802 13.747855 -29.999996 17.32051 C -23.811966 20.893166 -16.188007 20.893162 -9.999988 17.320501 C -3.811966 13.747835 0.0000076293945 7.1452904 -0.0000019073486 -0.000023841858 L -20 0.0000008742278 C -20 0.0000008742278 -20 0.0000008742278 -20 0.0000008742278 L -20 0.0000008742278 C -20 0.0000008742278 -20 0.0000008742278 -20 0.0000008742278 L -20 0.0000008742278 C -20 0.0000008742278 -20 0.0000008742278 -20 0.0000008742278 Z"/></g><g fill='#FF0000' ><ellipse rx="10" ry="10" transform="translate(-30 0.0000013113416) rotate(90) "/></g><g fill='#FFFFFF' ><path d="M -20 0.00000027818135 C -20 3.5726576 -18.09401 6.8739276 -14.999998 8.660255 C -11.905983 10.446583 -8.094004 10.446581 -4.999994 8.660251 C -1.905983 6.8739176 0.0000038146973 3.5726452 -0.0000009536743 -0.000011920929 L -10 0.0000004371139 C -10 0.0000004371139 -10 0.0000004371139 -10 0.0000004371139 L -10 0.0000004371139 C -10 0.0000004371139 -10 0.0000004371139 -10 0.0000004371139 L -10 0.0000004371139 C -10 0.0000004371139 -10 0.0000004371139 -10 0.0000004371139 Z"/></g><g fill='#FF0000' ><path d="M 0.0000023048183 40 C 7.145317 40 13.747856 36.18802 17.320513 29.999996 C 20.893167 23.811966 20.893164 16.188007 17.320503 9.999987 C 13.747836 3.811964 7.1452904 -0.0000076293945 -0.000023841858 0.0000019073486 L 0.0000017484556 20 C 0.0000017484556 20 0.0000017484556 20 0.0000017484556 20 L 0.0000017484556 20 C 0.0000017484556 20 0.0000017484556 20 0.0000017484556 20 L 0.0000017484556 20 C 0.0000017484556 20 0.0000017484556 20 0.0000017484556 20 Z"/></g><g fill='#FF0000' ><ellipse rx="10" ry="10" transform="translate(0.0000026226833 30) rotate(-180) "/></g><g fill='#FFFFFF' ><path d="M 0.0000011524091 20 C 3.5726585 20 6.873928 18.09401 8.660256 14.999998 C 10.446584 11.905983 10.446582 8.094004 8.660252 4.9999933 C 6.873918 1.905982 3.5726452 -0.0000038146973 -0.000011920929 0.0000009536743 L 0.0000008742278 10 C 0.0000008742278 10 0.0000008742278 10 0.0000008742278 10 L 0.0000008742278 10 C 0.0000008742278 10 0.0000008742278 10 0.0000008742278 10 L 0.0000008742278 10 C 0.0000008742278 10 0.0000008742278 10 0.0000008742278 10 Z"/></g><g fill='#FF0000' ><path d="M 40 0.0000007150977 C 40 -7.145314 36.18802 -13.747853 29.999996 -17.32051 C 23.811966 -20.893166 16.18801 -20.893162 9.999989 -17.320501 C 3.811966 -13.747835 -0.0000076293945 -7.1452904 0.0000019073486 0.000023841858 L 20 -0.00000023849762 C 20 -0.00000023849762 20 -0.00000023849762 20 -0.00000023849762 L 20 -0.00000023849762 C 20 -0.00000023849762 20 -0.00000023849762 20 -0.00000023849762 L 20 -0.00000023849762 C 20 -0.00000023849762 20 -0.00000023849762 20 -0.00000023849762 Z"/></g><g fill='#FF0000' ><ellipse rx="10" ry="10" transform="translate(30 -0.00000035774642) rotate(-90) "/></g><g fill='#FFFFFF' ><path d="M 20 0.00000035754886 C 20 -3.572657 18.09401 -6.8739266 14.999998 -8.660255 C 11.905983 -10.446583 8.094005 -10.446581 4.9999943 -8.660251 C 1.905983 -6.8739176 -0.0000038146973 -3.5726452 0.0000009536743 0.000011920929 L 10 -0.00000011924881 C 10 -0.00000011924881 10 -0.00000011924881 10 -0.00000011924881 L 10 -0.00000011924881 C 10 -0.00000011924881 10 -0.00000011924881 10 -0.00000011924881 L 10 -0.00000011924881 C 10 -0.00000011924881 10 -0.00000011924881 10 -0.00000011924881 Z"/></g><g fill='#FF0000' ><path d="M -0.0000058017295 -40 C -7.14532 -40 -13.74786 -36.18802 -17.320517 -29.999994 C -20.89317 -23.811964 -20.893166 -16.188005 -17.320503 -9.999986 C -13.747836 -3.811964 -7.1452904 0.000009536743 0.000023841858 -0.0000019073486 L -0.0000034969112 -20 C -0.0000034969112 -20 -0.0000034969112 -20 -0.0000034969112 -20 L -0.0000034969112 -20 C -0.0000034969112 -20 -0.0000034969112 -20 -0.0000034969112 -20 L -0.0000034969112 -20 C -0.0000034969112 -20 -0.0000034969112 -20 -0.0000034969112 -20 Z"/></g><g fill='#FF0000' ><ellipse rx="10" ry="10" transform="translate(-0.0000052453665 -30) "/></g><g fill='#FFFFFF' ><path d="M -0.0000029008647 -20 C -3.57266 -20 -6.87393 -18.09401 -8.660258 -14.999997 C -10.446585 -11.905982 -10.446583 -8.094003 -8.660252 -4.999993 C -6.873918 -1.905982 -3.5726452 0.0000047683716 0.000011920929 -0.0000009536743 L -0.0000017484556 -10 C -0.0000017484556 -10 -0.0000017484556 -10 -0.0000017484556 -10 L -0.0000017484556 -10 C -0.0000017484556 -10 -0.0000017484556 -10 -0.0000017484556 -10 L -0.0000017484556 -10 C -0.0000017484556 -10 -0.0000017484556 -10 -0.0000017484556 -10 Z"/></g></svg>