<svg viewBox="-7 -7 14 14" xmlns="http://www.w3.org/2000/svg" xmlns:xlink="http://www.w3.org/1999/xlink"><g fill='#969696' ><path d="M -9.999999 -10.465479 L -9.999999 10.465479 L 9.999999 10.465479 L 9.999999 -10.465479 Z"/></g><g fill='#000000' ><path d="M 9.999999 0 C 9.999999 -1.0493587 9.834834 -2.0921714 9.510564 -3.0901709 L 0 0 C 0 0 0 0 0 0 Z"/></g><g fill='#000000' ><path d="M 8.090169 -5.877852 C 7.4733715 -6.726801 6.7268 -7.4733725 5.8778515 -8.09017 L 0 0 C 0 0 0 0 0 0 Z"/></g><g fill='#000000' ><path d="M 3.0901694 -9.510565 C 2.09217 -9.834834 1.049357 -10 -0.00000166893 -10 L 0 0 C 0 0 0 0 0 0 Z"/></g><g fill='#000000' ><path d="M -3.0901701 -9.510564 C -4.0881696 -9.186295 -5.0289044 -8.706965 -5.8778534 -8.090169 L 0 0 C 0 0 0 0 0 0 Z"/></g><g fill='#000000' ><path d="M -8.09017 -5.8778515 C -8.706967 -5.0289025 -9.186296 -4.088167 -9.510566 -3.0901678 L 0 0 C 0 0 0 0 0 0 Z"/></g><g fill='#000000' ><path d="M -9.999999 0.00000087422774 C -9.999999 1.0493596 -9.834834 2.0921724 -9.510564 3.0901716 L 0 0 C 0 0 0 0 0 0 Z"/></g><g fill='#000000' ><path d="M -8.090169 5.877853 C -7.4733715 6.726802 -6.7268 7.4733734 -5.877851 8.090171 L 0 0 C 0 0 0 0 0 0 Z"/></g><g fill='#000000' ><path d="M -3.0901663 9.510565 C -2.092167 9.834834 -1.049354 9.999999 0.0000047683716 9.999999 L 0 0 C 0 0 0 0 0 0 Z"/></g><g fill='#000000' ><path d="M 3.090171 9.510564 C 4.0881705 9.186294 5.0289054 8.706965 5.8778543 8.090168 L 0 0 C 0 0 0 0 0 0 Z"/></g><g fill='#000000' ><path d="M 8.090169 5.8778524 C 8.706966 5.0289035 9.1862955 4.0881686 9.510565 3.0901692 L 0 0 C 0 0 0 0 0 0 Z"/></g><g fill='#000000' ><path d="M 9.999999 -0.0000017484555 C 9.999999 -1.0493605 9.834834 -2.092173 9.510563 -3.0901725 L 0 0 C 0 0 0 0 0 0 Z"/></g><g fill='#FFFFFF' ><ellipse rx="1" ry="1" transform="translate(0 0) "/></g></svg>