<svg viewBox="-7 -7 14 14" xmlns="http://www.w3.org/2000/svg" xmlns:xlink="http://www.w3.org/1999/xlink"><g fill='rgb(149.94 149.94 149.94 / 0.200)' ><path d="M -7.5 -7.5 L -7.5 7.5 L 7.5 7.5 L 7.5 -7.5 Z"/></g><g fill='rgb(0 0 0 / 0.900)' ><path d="M 0 0 C 0 0 0 0 0 0 L 0 0 C 0 0 0 0 0 0 Z"/></g><g fill='rgb(0 0 0 / 0.900)' ><path d="M 0 0 C 0 0 0 0 0 0 L 0 0 C 0 0 0 0 0 0 Z"/></g><g fill='rgb(0 0 0 / 0.900)' ><path d="M 0 0 C 0 0 0 0 0 0 L 0 0 C 0 0 0 0 0 0 Z"/></g><g fill='rgb(0 0 0 / 0.900)' ><path d="M 0 0 C 0 0 0 0 0 0 L 0 0 C 0 0 0 0 0 0 Z"/></g><g fill='rgb(0 0 0 / 0.900)' ><path d="M 0 0 C 0 0 0 0 0 0 L 0 0 C 0 0 0 0 0 0 Z"/></g><g fill='rgb(0 0 0 / 0.900)' ><path d="M 0 0 C 0 0 0 0 0 0 L 0 0 C 0 0 0 0 0 0 Z"/></g><g fill='rgb(0 0 0 / 0.900)' ><path d="M 0 0 C 0 0 0 0 0 0 L 0 0 C 0 0 0 0 0 0 Z"/></g><g fill='rgb(0 0 0 / 0.900)' ><path d="M 0 0 C 0 0 0 0 0 0 L 0 0 C 0 0 0 0 0 0 Z"/></g><g fill='rgb(0 0 0 / 0.900)' ><path d="M 0 0 C 0 0 0 0 0 0 L 0 0 C 0 0 0 0 0 0 Z"/></g><g fill='rgb(0 0 0 / 0.900)' ><path d="M 0 0 C 0 0 0 0 0 0 L 0 0 C 0 0 0 0 0 0 Z"/></g><g fill='rgb(0 0 0 / 0.900)' ><path d="M 0 0 C 0 0 0 0 0 0 L 0 0 C 0 0 0 0 0 0 Z"/></g><g fill='none' stroke='rgb(0 0 0 / 0.010)' stroke-width='0.99999994' ><path d="M -7.5 -7.5 L -7.5 7.5 L 7.5 7.5 L 7.5 -7.5 Z"/></g><g fill='rgb(255 255 255 / 1.000)' ><ellipse rx="1" ry="1" transform="translate(0 0) "/></g></svg>