<svg viewBox="-7 -7 14 14" xmlns="http://www.w3.org/2000/svg" xmlns:xlink="http://www.w3.org/1999/xlink"><g fill='rgb(149 149 149 / 0.200)' ><path d="M -7.5 -7.5 L -7.5 7.5 L 7.5 7.5 L 7.5 -7.5 Z"/></g><g fill='rgb(0 0 0 / 1.000)' ><path d="M 9.999999 0 C 9.999999 -1.0493587 9.834834 -2.0921717 9.510564 -3.0901713 L 0 0 C 0 0 0 0 0 0 Z"/></g><g fill='rgb(0 0 0 / 1.000)' ><path d="M 8.090169 -5.877852 C 7.4733715 -6.726801 6.7268 -7.473373 5.877851 -8.09017 L 0 0 C 0 0 0 0 0 0 Z"/></g><g fill='rgb(0 0 0 / 1.000)' ><path d="M 3.0901694 -9.510565 C 2.09217 -9.834834 1.0493567 -10 -0.0000019073486 -10 L 0 0 C 0 0 0 0 0 0 Z"/></g><g fill='rgb(0 0 0 / 1.000)' ><path d="M -3.0901701 -9.510564 C -4.0881696 -9.186295 -5.028905 -8.706965 -5.877854 -8.090168 L 0 0 C 0 0 0 0 0 0 Z"/></g><g fill='rgb(0 0 0 / 1.000)' ><path d="M -8.09017 -5.8778515 C -8.706967 -5.0289025 -9.186296 -4.088167 -9.510566 -3.0901675 L 0 0 C 0 0 0 0 0 0 Z"/></g><g fill='rgb(0 0 0 / 1.000)' ><path d="M -9.999999 0.00000087422774 C -9.999999 1.0493596 -9.834834 2.0921726 -9.510564 3.090172 L 0 0 C 0 0 0 0 0 0 Z"/></g><g fill='rgb(0 0 0 / 1.000)' ><path d="M -8.090169 5.877853 C -7.4733715 6.726802 -6.7268 7.473374 -5.8778505 8.090172 L 0 0 C 0 0 0 0 0 0 Z"/></g><g fill='rgb(0 0 0 / 1.000)' ><path d="M -3.0901663 9.510565 C -2.092167 9.834834 -1.0493536 9.999999 0.00000500679 9.999999 L 0 0 C 0 0 0 0 0 0 Z"/></g><g fill='rgb(0 0 0 / 1.000)' ><path d="M 3.090171 9.510564 C 4.0881705 9.186294 5.028906 8.706965 5.8778543 8.090168 L 0 0 C 0 0 0 0 0 0 Z"/></g><g fill='rgb(0 0 0 / 1.000)' ><path d="M 8.090169 5.8778524 C 8.706966 5.0289035 9.1862955 4.088168 9.510565 3.090169 L 0 0 C 0 0 0 0 0 0 Z"/></g><g fill='rgb(0 0 0 / 1.000)' ><path d="M 9.999999 -0.0000017484555 C 9.999999 -1.0493605 9.834834 -2.0921733 9.510563 -3.090173 L 0 0 C 0 0 0 0 0 0 Z"/></g><g fill='none' stroke='rgb(0 0 0 / 0.010)' stroke-width='0.99999994' ><path d="M -7.5 -7.5 L -7.5 7.5 L 7.5 7.5 L 7.5 -7.5 Z"/></g><g fill='rgb(255 255 255 / 1.000)' ><ellipse rx="1" ry="1" transform="translate(0 0) "/></g></svg>