<svg viewBox="-100 -100 200 200" xmlns="http://www.w3.org/2000/svg" xmlns:xlink="http://www.w3.org/1999/xlink"><g fill='none' stroke='rgba(255,0,0,1)' stroke-width='1'><ellipse cx="10" cy="0" rx="10" ry="10" transform="rotate(-0rad)"/><ellipse cx="4.9999995" cy="8.6602545" rx="10" ry="10" transform="rotate(-60.000004rad)"/><ellipse cx="-5.0000005" cy="8.660254" rx="10" ry="10" transform="rotate(-120.00001rad)"/><ellipse cx="-10" cy="-0.0000008742278" rx="10" ry="10" transform="rotate(-180rad)"/><ellipse cx="-4.999999" cy="-8.6602545" rx="10" ry="10" transform="rotate(-119.99999rad)"/><ellipse cx="4.999999" cy="-8.6602545" rx="10" ry="10" transform="rotate(-60.000004rad)"/></g><g fill='none' stroke='rgba(0,0,255,1)' stroke-width='1.1'><ellipse cx="0" cy="0" rx="20" ry="20" transform="rotate(-0rad)"/></g><g fill='none' stroke='rgba(0,0,255,1)' stroke-width='1'><ellipse cx="0" cy="0" rx="22" ry="22" transform="rotate(-0rad)"/></g><g fill='none' stroke='rgba(0,0,255,1)' stroke-width='0.90999997'><ellipse cx="0" cy="0" rx="24" ry="24" transform="rotate(-0rad)"/></g><g fill='none' stroke='rgba(0,0,255,1)' stroke-width='0.82899994'><ellipse cx="0" cy="0" rx="26" ry="26" transform="rotate(-0rad)"/></g><g fill='none' stroke='rgba(0,0,255,1)' stroke-width='0.75609994'><ellipse cx="0" cy="0" rx="28" ry="28" transform="rotate(-0rad)"/></g><g fill='none' stroke='rgba(0,0,255,1)' stroke-width='0.69048995'><ellipse cx="0" cy="0" rx="30" ry="30" transform="rotate(-0rad)"/></g><g fill='none' stroke='rgba(0,0,255,1)' stroke-width='0.63144094'><ellipse cx="0" cy="0" rx="32" ry="32" transform="rotate(-0rad)"/></g><g fill='none' stroke='rgba(0,0,255,1)' stroke-width='0.57829684'><ellipse cx="0" cy="0" rx="34" ry="34" transform="rotate(-0rad)"/></g><g fill='none' stroke='rgba(0,0,255,1)' stroke-width='0.53046715'><ellipse cx="0" cy="0" rx="36" ry="36" transform="rotate(-0rad)"/></g><g fill='none' stroke='rgba(0,0,255,1)' stroke-width='0.48742038'><ellipse cx="0" cy="0" rx="38" ry="38" transform="rotate(-0rad)"/></g></svg>
